<svg xmlns="http://www.w3.org/2000/svg" xmlns:xlink="http://www.w3.org/1999/xlink" viewBox="0 0 1161 1410"><defs><style>.cls-1{isolation:isolate;}.cls-2{fill:url(#linear-gradient);}.cls-3,.cls-4,.cls-5{mix-blend-mode:soft-light;}.cls-3{fill:url(#linear-gradient-2);}.cls-4{fill:url(#linear-gradient-3);}.cls-5{fill:url(#linear-gradient-4);}</style><linearGradient id="linear-gradient" x1="130.1" y1="-75.11" x2="818.72" y2="1117.61" gradientUnits="userSpaceOnUse"><stop offset="0" stop-color="#00ffc0"/><stop offset="1" stop-color="#29abe2"/></linearGradient><linearGradient id="linear-gradient-2" x1="91.02" y1="-52.55" x2="332.61" y2="365.89" gradientUnits="userSpaceOnUse"><stop offset="0" stop-color="#93278f"/><stop offset="1" stop-color="#1b1464"/></linearGradient><linearGradient id="linear-gradient-3" x1="999.78" y1="-53.7" x2="1142.58" y2="193.63" xlink:href="#linear-gradient-2"/><linearGradient id="linear-gradient-4" x1="583.7" y1="595.44" x2="868.56" y2="1088.84" xlink:href="#linear-gradient-2"/></defs><title>Asset 2</title><g class="cls-1"><g id="Layer_2" data-name="Layer 2"><g id="Layer_1-2" data-name="Layer 1"><polygon class="cls-2" points="1161 0 1161 920 446.21 1221.68 0 1410 0 0 1161 0"/><path class="cls-3" d="M493,44c0,219.26-177.74,397-397,397A397.6,397.6,0,0,1,0,429.31V0H490.58A399.69,399.69,0,0,1,493,44Z"/><path class="cls-4" d="M1161,0V183c-118.3,0-218.7-76.65-254.23-183Z"/><path class="cls-5" d="M1161,727.4V920L446.21,1221.68A432.51,432.51,0,0,1,367,971.5c0-240,194.53-434.5,434.5-434.5C951,537,1082.82,612.48,1161,727.4Z"/></g></g></g></svg>